<svg xmlns="http://www.w3.org/2000/svg" viewBox="0 0 200 115"><defs><style>.cls-2{fill:#f4f4f4}.cls-3{fill:#d61f26}</style></defs><g id="Слой_2" data-name="Слой 2"><path fill="#334094" d="M199.89.27v114.64l-.02.03H.16V.27h199.73z"/><path class="cls-2" d="M199.89 102.98v11.93l-.02.03h-20.78l-61.3-35.21-6.15-3.51-7.24-4.17-2.42-1.41-7.37-4.21-2.74-1.58-2.31-1.32-4.64-2.65-1.48-.86-2.27-1.29L59.4 46.2l-9.78-5.62L.16 12.21V.27L.34.04l.39.23h20.22l62.49 35.85 6.12 3.54 1.65.92L101 46.2l.98.58 3.76 2.15 5.9 3.4 1.01.59 5.14 2.93 5 2.88 13.45 7.7 9.78 5.62 53.87 30.93z"/><path class="cls-3" d="M199.91 114.58l.05.42-13.37-.06-68.8-39.5-5.87-3.39-.28-.15-5.9-3.4-3.59-2.07-6.53-3.75-6.06-3.45-.86-.5-3.78-2.18-1.48-.87-16.52-9.48-9.77-5.62L.16 7.86V0l.18.04.39.23 70.25 40.31 9.77 5.62 2.69 1.54 6.12 3.54 2.31 1.31 3.75 2.16 6.93 3.98 9.09 5.22 1.01.58 3.34 1.9 1.8 1.05 7.97 4.57 74.15 42.53z"/><path class="cls-2" d="M199.89 2.52v11.94l-45.55 26.12-9.77 5.62-21.78 12.53-5 2.85-5.14 2.95-1.01.58-2.3 1.32-3.6 2.07-3.76 2.14-2.43 1.41-9.99 5.74-6.12 3.53-58.59 33.62H.16v-9.72l57.79-33.17 9.76-5.62 13.46-7.7 2.27-1.31 1.48-.87 4.64-2.66 2.31-1.3 10.11-5.81.99-.58 8.67-4.98 1.11-.64 5.04-2.88L183.01.27h15.31l1.57 2.25z"/><path class="cls-3" d="M199.38 3.12L134.1 40.58l-9.78 5.62-6.53 3.76-5.14 2.96-1.01.57-9.09 5.24-6.93 3.95-3.75 2.17-2.31 1.31-.46.27-5.66 3.27-4.14 2.35-74.63 42.89H.16v-5.37l65.3-37.52 9.79-5.62 8.19-4.69 1.48-.86 3.78-2.15.86-.52 6.06-3.46 10.12-5.82 4.73-2.73 1.17-.67 6.15-3.53 2.47-1.42L190.5.27h9.39l.02 2.5-.53.35z"/><path class="cls-2" d="M0 40.58h200v31.46H0z"/><path class="cls-3" d="M0 46.2h200v20.22H0z"/><path class="cls-3" d="M89.56.27h22.08v114.67H89.56z"/><path class="cls-2" d="M111.59 72.05h6.15v42.89H83.38V72.05h6.12V40.58h-6.12V.27h34.36v40.31h-6.15v31.47z"/><path class="cls-3" d="M89.4.27h22.32v114.67H89.4z"/></g></svg>